<svg width="160" height="50" viewBox="0 0 160 50" fill="none" xmlns="http://www.w3.org/2000/svg">
<path d="M18.6403 22.2914L19.1664 6.13611C14.2808 6.19594 9.41774 8.08073 5.68213 11.7905L5.79487 11.8952L18.6403 22.2914Z" fill="white"/>
<path d="M5.55456 11.9325C1.87156 15.6647 0.0150326 20.5262 0 25.3803L16.784 24.1313L5.55456 11.9325Z" fill="white"/>
<path d="M5.92265 38.8805L5.68213 39.1124C9.47036 42.8819 14.4311 44.7667 19.3919 44.7667L18.8131 28.0131L5.91513 38.873L5.92265 38.8805Z" fill="white"/>
<path d="M0 25.4476C0 30.3092 1.83398 35.1558 5.48692 38.9029L16.784 26.0385L0 25.4476Z" fill="white"/>
<path d="M36.8075 41.5507C41.167 37.078 43.3467 31.2965 43.3467 25.5075C43.3467 19.7185 41.167 13.9445 36.8226 9.47937L26.0742 25.1859L36.8075 41.5507Z" fill="white"/>
<path d="M36.1311 8.74634H36.1386C31.7416 4.36346 26.0217 2.11967 20.2642 2L23.5338 19.2024L36.1311 8.74634Z" fill="white"/>
<path d="M20.4146 49.0001C26.5479 48.828 32.0949 46.2925 36.1387 42.2687L35.808 41.9321L23.5338 31.1544L20.4146 49.0001Z" fill="white"/>
<path d="M78.5228 30.6682C75.599 30.6682 73.2238 28.3197 73.2238 25.4027C73.2238 22.4933 75.599 20.1373 78.5228 20.1373C79.1768 20.1373 79.8006 20.2644 80.3643 20.4813L82.1683 17.0109C81.0483 16.5248 79.8081 16.248 78.5078 16.248C73.4268 16.2555 69.3153 20.3467 69.3078 25.4102C69.3078 30.4662 73.4268 34.5499 78.5078 34.5649C79.8081 34.5649 81.0483 34.2881 82.1683 33.802L80.3643 30.3316C79.7931 30.5485 79.1768 30.6756 78.5228 30.6756V30.6682ZM69.4131 16.637H64.8882L59.0931 24.9016V16.637H55.1621V34.2508H59.0931V26.0459L65.0611 34.2508H69.9993L62.8814 25.1933L69.4131 16.637Z" fill="white"/>
<path d="M95.3141 16.637H89.6994L83.5962 34.2507H87.3243L89.3236 28.5291H95.8252L97.8246 34.2507H101.425L95.3066 16.637H95.3141ZM90.3834 25.47L92.5406 19.165L94.7655 25.47H90.3834Z" fill="white"/>
<path d="M110.55 16.8988H113.196V20.0102C113.196 23.4432 115.165 26.4275 117.991 28.23L116.503 30.3541C115.12 29.7333 112.858 27.5045 111.933 25.2682C111.069 27.6316 109.054 29.7707 107.258 30.8253L105.665 28.7236C108.521 26.9435 110.55 23.5554 110.55 19.9728V16.9063V16.8988ZM119.983 15.8442H122.531V35.0436H119.983V23.6751H116.007V21.2742H119.983V15.8442Z" fill="white"/>
<path d="M124.996 16.9811H127.537V21.0124H132.107V16.9811H134.647V29.9801H124.989V16.9811H124.996ZM127.537 23.4357V27.6167H132.107V23.4357H127.537ZM137.782 15.8442H140.367V35.0436H137.782V15.8442Z" fill="white"/>
<path d="M142.254 30.3915H160.007V32.7699H142.254V30.3915ZM149.74 16.8763H152.514V18.5741C152.514 21.8127 155.761 24.5127 159.053 25.3354L158.001 27.5867C155.686 26.9659 152.619 25.2681 151.131 22.613C149.642 25.3579 146.764 27.0333 144.328 27.6765L143.276 25.3803C146.711 24.4828 149.755 21.9024 149.755 18.6265V16.8913L149.74 16.8763Z" fill="white"/>
</svg>
