<svg width="48" height="48" viewBox="0 0 48 48" fill="none" xmlns="http://www.w3.org/2000/svg">
<g clip-path="url(#clip0_2922_87580)">
<path d="M28.0099 17.1562C29.4985 18.5456 30.3178 20.4115 30.3178 22.3381H32.7178C32.7178 19.7195 31.6025 17.2263 29.6475 15.4017C27.6953 13.5796 25.0642 12.5691 22.3367 12.5691L22.3367 14.9691C24.4791 14.9691 26.5185 15.7642 28.0099 17.1562Z" fill="#1A1A1A"/>
<path fill-rule="evenodd" clip-rule="evenodd" d="M22.6479 4C32.9448 4 41.292 12.3472 41.292 22.6441C41.292 27.3611 39.5402 31.669 36.6517 34.9527L43.9991 42.3001L42.3021 43.9971L34.9546 36.6496C31.6711 39.5371 27.364 41.2881 22.6479 41.2881C12.3511 41.2881 4.00391 32.9409 4.00391 22.6441C4.00391 12.3472 12.3511 4 22.6479 4ZM38.892 22.6441C38.892 13.6727 31.6193 6.4 22.6479 6.4C13.6766 6.4 6.40391 13.6727 6.40391 22.6441C6.40391 31.6154 13.6766 38.8881 22.6479 38.8881C31.6193 38.8881 38.892 31.6154 38.892 22.6441Z" fill="#1A1A1A"/>
</g>
<defs>
<clipPath id="clip0_2922_87580">
<rect width="48" height="48" fill="white"/>
</clipPath>
</defs>
</svg>
