<svg width="80" height="80" viewBox="0 0 80 80" fill="none" xmlns="http://www.w3.org/2000/svg">
<path fill-rule="evenodd" clip-rule="evenodd" d="M60.944 7.94173C61.4737 7.72104 62.0418 7.60742 62.6157 7.60742C63.1895 7.60742 63.7577 7.72104 64.2874 7.94173C64.8171 8.16242 65.2979 8.4858 65.702 8.89323L65.7042 8.89541L71.1069 14.2982L71.109 14.3003C71.5165 14.7044 71.8399 15.1852 72.0605 15.7149C72.2812 16.2446 72.3949 16.8128 72.3949 17.3866C72.3949 17.9605 72.2812 18.5287 72.0605 19.0584C71.8399 19.5881 71.5165 20.0689 71.109 20.473L71.1059 20.4761L42.1691 49.5145L28.1557 52.0369L30.4925 37.829L59.5263 8.89634L59.5294 8.89323C59.9335 8.4858 60.4143 8.16242 60.944 7.94173ZM62.6157 6.10742C61.8438 6.10742 61.0796 6.26025 60.3671 6.55709C59.6552 6.85367 59.0091 7.28813 58.4658 7.83547L58.4644 7.83693L29.2623 36.9373C29.1508 37.0483 29.0771 37.1916 29.0516 37.3468L26.5032 52.8415C26.4636 53.0819 26.5433 53.3265 26.7169 53.4975C26.8905 53.6685 27.1363 53.7445 27.3761 53.7013L42.6668 50.949C42.8178 50.9218 42.9569 50.8489 43.0652 50.7402L72.1654 21.538L72.167 21.5363C72.7142 20.9931 73.1486 20.347 73.4452 19.6352C73.742 18.9227 73.8949 18.1585 73.8949 17.3866C73.8949 16.6148 73.742 15.8506 73.4452 15.1381C73.1485 14.426 72.7139 13.7797 72.1664 13.2363L72.1654 13.2353L66.767 7.83693L66.7659 7.83588C66.2226 7.28835 65.5763 6.85374 64.8643 6.55709C64.1518 6.26025 63.3876 6.10742 62.6157 6.10742ZM8.87865 16.5553C9.69385 15.7401 10.7995 15.2821 11.9524 15.2821H27.2431C27.6573 15.2821 27.9931 14.9463 27.9931 14.5321C27.9931 14.1179 27.6573 13.7821 27.2431 13.7821H11.9524C10.4017 13.7821 8.91449 14.3981 7.81798 15.4946C6.72148 16.5911 6.10547 18.0783 6.10547 19.629V68.0498C6.10547 69.6005 6.72148 71.0877 7.81798 72.1842C8.91449 73.2807 10.4017 73.8967 11.9524 73.8967H60.3729C61.9236 73.8967 63.4108 73.2807 64.5073 72.1842C65.6038 71.0877 66.2198 69.6005 66.2198 68.0498V52.759C66.2198 52.3448 65.884 52.009 65.4698 52.009C65.0556 52.009 64.7198 52.3448 64.7198 52.759V68.0498C64.7198 69.2027 64.2618 70.3083 63.4466 71.1235C62.6314 71.9387 61.5258 72.3967 60.3729 72.3967H11.9524C10.7995 72.3967 9.69385 71.9387 8.87865 71.1235C8.06344 70.3083 7.60547 69.2027 7.60547 68.0498V19.629C7.60547 18.4761 8.06345 17.3705 8.87865 16.5553Z" fill="#1A1A1A"/>
</svg>
