<svg width="80" height="80" viewBox="0 0 80 80" fill="none" xmlns="http://www.w3.org/2000/svg">
<g id="interface-file-clipboard-block--edit-task-edition-block-clipboard-form--Streamline-Core">
<path id="Union" fill-rule="evenodd" clip-rule="evenodd" d="M24.8024 7.51904C22.3657 7.51904 20.4002 9.47766 20.4002 11.8816V14.4378C20.4002 16.8417 22.3657 18.8003 24.8024 18.8003H40.2591C42.6959 18.8003 44.6613 16.8417 44.6613 14.4378V11.8903L44.6613 11.8813L44.6613 11.873C44.6566 9.473 42.693 7.51904 40.2591 7.51904H24.8024ZM46.1613 14.4378V12.6313H53.1396C54.309 12.6313 55.4293 13.0923 56.2545 13.9111C57.0794 14.7297 57.5418 15.8387 57.5418 16.9938V27.2188C57.5418 27.633 57.8776 27.9688 58.2918 27.9688C58.706 27.9688 59.0418 27.633 59.0418 27.2188V16.9938C59.0418 15.4371 58.4185 13.9453 57.311 12.8463C56.2037 11.7475 54.7031 11.1313 53.1396 11.1313H46.1135C45.7424 8.24375 43.2582 6.01904 40.2591 6.01904H24.8024C21.8033 6.01904 19.3191 8.24375 18.948 11.1313H11.9218C10.3583 11.1313 8.85763 11.7475 7.75031 12.8463C6.64279 13.9453 6.01953 15.4371 6.01953 16.9938V68.1189C6.01953 69.6756 6.64279 71.1673 7.75031 72.2663C8.85763 73.3651 10.3582 73.9814 11.9218 73.9814H32.5306C32.9448 73.9814 33.2806 73.6456 33.2806 73.2314C33.2806 72.8171 32.9448 72.4814 32.5306 72.4814H11.9218C10.7523 72.4814 9.63199 72.0203 8.80686 71.2016C7.98191 70.383 7.51953 69.274 7.51953 68.1189V16.9938C7.51953 15.8387 7.98191 14.7297 8.80686 13.9111C9.63199 13.0923 10.7523 12.6313 11.9218 12.6313H18.9002V14.4378C18.9002 17.681 21.5482 20.3003 24.8024 20.3003H40.2591C43.5133 20.3003 46.1613 17.681 46.1613 14.4378ZM50.1512 39.2499C49.737 39.2499 49.4012 39.5857 49.4012 39.9999V49.0659H40.259C39.8448 49.0659 39.509 49.4017 39.509 49.8159V62.9039C39.509 63.3181 39.8448 63.6539 40.259 63.6539H49.4012V72.7199C49.4012 73.1342 49.737 73.4699 50.1512 73.4699H63.3409C63.7551 73.4699 64.0909 73.1342 64.0909 72.7199V63.6539H73.2332C73.6474 63.6539 73.9832 63.3181 73.9832 62.9039V49.8159C73.9832 49.4017 73.6474 49.0659 73.2332 49.0659H64.0909V39.9999C64.0909 39.5857 63.7551 39.2499 63.3409 39.2499H50.1512ZM50.9012 49.8159V40.7499H62.5909V49.8159C62.5909 50.2301 62.9267 50.5659 63.3409 50.5659H72.4832V62.1539H63.3409C62.9267 62.1539 62.5909 62.4897 62.5909 62.9039V71.9699H50.9012V62.9039C50.9012 62.4897 50.5654 62.1539 50.1512 62.1539H41.009V50.5659H50.1512C50.5654 50.5659 50.9012 50.2301 50.9012 49.8159Z" fill="#1A1A1A"/>
</g>
</svg>
