<svg width="80" height="80" viewBox="0 0 80 80" fill="none" xmlns="http://www.w3.org/2000/svg">
<g id="interface-user-check--actions-close-checkmark-check-geometric-human-person-single-success-up-user--Streamline-Core">
<path id="Union" fill-rule="evenodd" clip-rule="evenodd" d="M29.7132 7.32129C23.7367 7.32129 18.8918 12.1662 18.8918 18.1427C18.8918 24.1192 23.7367 28.9641 29.7132 28.9641C35.6897 28.9641 40.5346 24.1192 40.5346 18.1427C40.5346 12.1662 35.6897 7.32129 29.7132 7.32129ZM17.3918 18.1427C17.3918 11.3378 22.9083 5.82129 29.7132 5.82129C36.5181 5.82129 42.0346 11.3378 42.0346 18.1427C42.0346 24.9476 36.5181 30.4641 29.7132 30.4641C22.9083 30.4641 17.3918 24.9476 17.3918 18.1427ZM73.8771 44.5425C74.2086 44.7908 74.2761 45.2609 74.0277 45.5924L52.8392 73.8781C52.7199 74.0373 52.5423 74.1426 52.3454 74.1708C52.1485 74.1991 51.9484 74.1479 51.7893 74.0287L37.6464 63.4344C37.3149 63.1861 37.2475 62.716 37.4958 62.3845C37.7441 62.053 38.2142 61.9855 38.5457 62.2339L52.0883 72.3785L72.8272 44.6931C73.0755 44.3616 73.5456 44.2941 73.8771 44.5425ZM21.1464 39.9022C25.2358 38.209 29.7352 37.7656 34.0764 38.628C38.4175 39.4904 42.4058 41.6199 45.5374 44.7477C45.8305 45.0404 46.3054 45.0401 46.5981 44.747C46.8908 44.4539 46.8905 43.9791 46.5974 43.6863C43.256 40.3491 39.0006 38.0769 34.3686 37.1567C29.7366 36.2366 24.9359 36.7097 20.5726 38.5163C16.2093 40.323 12.4793 43.3822 9.85367 47.3075C7.22801 51.2328 5.82447 55.8481 5.82031 60.5706V60.5713V68.2856C5.82031 68.6998 6.1561 69.0356 6.57031 69.0356H19.4274C19.8417 69.0356 20.1774 68.6998 20.1774 68.2856C20.1774 67.8714 19.8417 67.5356 19.4274 67.5356H7.32031V60.5716C7.32427 56.1457 8.63969 51.8202 11.1005 48.1415C13.5613 44.4626 17.0571 41.5955 21.1464 39.9022Z" fill="#1A1A1A"/>
</g>
</svg>
