<svg width="80" height="80" viewBox="0 0 80 80" fill="none" xmlns="http://www.w3.org/2000/svg">
<g id="interface-help-question-message--bubble-help-mark-message-query-question-speech--Streamline-Core">
<path id="Union" fill-rule="evenodd" clip-rule="evenodd" d="M74.486 5.51391C73.5167 4.54457 72.202 4 70.8311 4H22.2244C20.8535 4 19.5388 4.54457 18.5695 5.51391C17.6001 6.48324 17.0556 7.79795 17.0556 9.1688V17.0555H9.16879C7.79794 17.0555 6.48324 17.6001 5.5139 18.5694C4.54457 19.5387 4 20.8534 4 22.2243V59.7841C4 61.1549 4.54457 62.4696 5.5139 63.4389C6.48324 64.4083 7.79794 64.9529 9.16879 64.9529H17.2564V75.2498C17.2564 75.5383 17.4218 75.8011 17.6818 75.9259C17.9417 76.0508 18.2503 76.0155 18.4754 75.8351L32.0564 64.9529H57.7755C59.1464 64.9529 60.4611 64.4083 61.4304 63.4389C62.3998 62.4696 62.9443 61.1549 62.9443 59.7841V51.8974H70.8311C72.202 51.8974 73.5167 51.3528 74.486 50.3834C75.4553 49.4141 75.9999 48.0994 75.9999 46.7286V9.1688C75.9999 7.79795 75.4553 6.48324 74.486 5.51391ZM57.7755 17.0555H18.5556V9.1688C18.5556 8.19577 18.9421 7.2626 19.6301 6.57457C20.3182 5.88653 21.2513 5.5 22.2244 5.5H70.8311C71.8041 5.5 72.7373 5.88653 73.4253 6.57457C74.1134 7.2626 74.4999 8.19577 74.4999 9.1688V46.7286C74.4999 47.7016 74.1134 48.6348 73.4253 49.3228C72.7373 50.0108 71.8041 50.3974 70.8311 50.3974H62.9443V22.2243C62.9443 20.8534 62.3998 19.5387 61.4304 18.5694C60.4611 17.6001 59.1464 17.0555 57.7755 17.0555ZM9.16879 18.5555C8.19577 18.5555 7.2626 18.942 6.57456 19.6301C5.88653 20.3181 5.5 21.2513 5.5 22.2243V59.7841C5.5 60.7571 5.88653 61.6903 6.57456 62.3783C7.2626 63.0663 8.19577 63.4529 9.16879 63.4529H18.0064C18.4206 63.4529 18.7564 63.7886 18.7564 64.2029V73.6878L31.324 63.6176C31.4571 63.511 31.6225 63.4529 31.793 63.4529H57.7755C58.7486 63.4529 59.6817 63.0663 60.3698 62.3783C61.0578 61.6903 61.4443 60.7571 61.4443 59.7841V22.2243C61.4443 21.2513 61.0578 20.3181 60.3698 19.6301C59.6817 18.942 58.7486 18.5555 57.7755 18.5555H9.16879ZM13.8889 32.7223C13.4747 32.7223 13.1389 33.0581 13.1389 33.4723C13.1389 33.8865 13.4747 34.2223 13.8889 34.2223V33.4723C13.8889 34.2223 13.889 34.2223 13.8892 34.2223H13.89H13.8913H13.8932H13.8955H13.8984H13.9019H13.9058H13.9103H13.9153H13.9208H13.9268H13.9334H13.9404H13.948H13.9561H13.9647H13.9738H13.9834H13.9935H14.0041H14.0152H14.0269H14.039H14.0516H14.0647H14.0783H14.0924H14.107H14.1221H14.1377H14.1538H14.1703H14.1874H14.2049H14.2229H14.2414H14.2604H14.2798H14.2997H14.3201H14.341H14.3624H14.3842H14.4065H14.4292H14.4524H14.4761H14.5003H14.5249H14.55H14.5755H14.6015H14.628H14.6549H14.6823H14.7101H14.7384H14.7671H14.7963H14.8259H14.856H14.8865H14.9174H14.9488H14.9807H15.0129H15.0457H15.0788H15.1124H15.1464H15.1809H15.2157H15.2511H15.2868H15.323H15.3596H15.3966H15.434H15.4719H15.5101H15.5488H15.5879H15.6275H15.6674H15.7077H15.7485H15.7897H15.8313H15.8732H15.9156H15.9584H16.0016H16.0452H16.0892H16.1336H16.1784H16.2236H16.2692H16.3151H16.3615H16.4083H16.4554H16.5029H16.5509H16.5992H16.6478H16.6969H16.7463H16.7962H16.8464H16.8969H16.9479H16.9992H17.0509H17.1029H17.1554H17.2082H17.2613H17.3149H17.3687H17.423H17.4776H17.5326H17.5879H17.6436H17.6996H17.756H17.8127H17.8698H17.9273H17.9851H18.0432H18.1017H18.1605H18.2196H18.2791H18.339H18.3992H18.4597H18.5205H18.5817H18.6432H18.705H18.7672H18.8297H18.8925H18.9557H19.0192H19.083H19.1471H19.2115H19.2762H19.3413H19.4067H19.4724H19.5384H19.6047H19.6713H19.7383H19.8055H19.8731H19.9409H20.0091H20.0775H20.1463H20.2153H20.2846H20.3543H20.4242H20.4944H20.565H20.6358H20.7069H20.7782H20.8499H20.9218H20.9941H21.0666H21.1394H21.2124H21.2858H21.3594H21.4333H21.5075H21.5819H21.6566H21.7316H21.8068H21.8823H21.9581H22.0341H22.1104H22.187H22.2638H22.3409H22.4182H22.4958H22.5736H22.6517H22.73H22.8086H22.8874H22.9665H23.0458H23.1253H23.2051H23.2852H23.3655H23.446H23.5267H23.6077H23.6889H23.7704H23.852H23.9339H24.0161H24.0984H24.181H24.2638H24.3469H24.4301H24.5136H24.5972H24.6811H24.7653H24.8496H24.9341H25.0189H25.1038H25.189H25.2744H25.3599H25.4457H25.5317H25.6179H25.7043H25.7908H25.8776H25.9646H26.0517H26.1391H26.2266H26.3143H26.4023H26.4904H26.5787H26.6671H26.7558H26.8446H26.9336H27.0228H27.1122H27.2017H27.2914H27.3813H27.4714H27.5616H27.652H27.7426H27.8333H27.9242H28.0152H28.1064H28.1978H28.2894H28.381H28.4729H28.5649H28.657H28.7493H28.8418H28.9344H29.0271H29.12H29.213H29.3062H29.3995H29.4929H29.5865H29.6803H29.7741H29.8681H29.9623H30.0565H30.1509H30.2454H30.3401H30.4348H30.5297H30.6247H30.7199H30.8151H30.9105H31.006H31.1016H31.1973H31.2932H31.3891H31.4852H31.5813H31.6776H31.774H31.8704H31.967H32.0637H32.1605H32.2574H32.3544H32.4514H32.5486H32.6459H32.7432H32.8407H32.9382H33.0358H33.1335H33.2313H33.3292H33.4271H33.5252H33.6233H33.7215H33.8197H33.9181H34.0165H34.115H34.2135H34.3121H34.4108H34.5096H34.6084H34.7073H34.8062H34.9053H35.0043H35.1034H35.2026H35.3019H35.4011H35.5005H35.5999H35.6993H35.7988H35.8983H35.9979H36.0975H36.1972H36.2969H36.3966H36.4964H36.5962H36.6961H36.796H36.8959H36.9958H37.0958H37.1958H37.2958H37.3959H37.496H37.5961H37.6962H37.7963H37.8965H37.9967H38.0969H38.1971H38.2973H38.3975H38.4977H38.598H38.6982H38.7985H38.8988H38.999H39.0993H39.1995H39.2998H39.4001H39.5003H39.6006H39.7008H39.801H39.9013H40.0015H40.1017H40.2018H40.302H40.4022H40.5023H40.6024H40.7025H40.8025H40.9026H41.0026H41.1026H41.2025H41.3025H41.4024H41.5022H41.6021H41.7018H41.8016H41.9013H42.001H42.1006H42.2002H42.2998H42.3993H42.4987H42.5981H42.6975H42.7968H42.8961H42.9953H43.0944H43.1935H43.2925H43.3915H43.4904H43.5892H43.688H43.7867H43.8854H43.984H44.0825H44.1809H44.2793H44.3776H44.4758H44.5739H44.672H44.77H44.8679H44.9657H45.0634H45.1611H45.2586H45.3561H45.4535H45.5508H45.648H45.7451H45.8421H45.939H46.0358H46.1326H46.2292H46.3257H46.4221H46.5184H46.6146H46.7107H46.8067H46.9026H46.9983H47.094H47.1895H47.2849H47.3802H47.4754H47.5705H47.6654H47.7602H47.8549H47.9495H48.0439H48.1382H48.2324H48.3264H48.4203H48.5141H48.6078H48.7013H48.7946H48.8878H48.9809H49.0739H49.1667H49.2593H49.3518H49.4442H49.5364H49.6284H49.7203H49.812H49.9036H49.9951H50.0863H50.1774H50.2684H50.3592H50.4498H50.5402H50.6305H50.7206H50.8106H50.9004H50.99H51.0794H51.1687H51.2577H51.3466H51.4354H51.5239H51.6122H51.7004H51.7884H51.8762H51.9638H52.0512C52.4654 34.2223 52.8012 33.8865 52.8012 33.4723C52.8012 33.0581 52.4654 32.7223 52.0512 32.7223H51.9638H51.8762H51.7884H51.7004H51.6122H51.5239H51.4354H51.3466H51.2577H51.1687H51.0794H50.99H50.9004H50.8106H50.7206H50.6305H50.5402H50.4498H50.3592H50.2684H50.1774H50.0863H49.9951H49.9036H49.812H49.7203H49.6284H49.5364H49.4442H49.3518H49.2593H49.1667H49.0739H48.9809H48.8878H48.7946H48.7013H48.6078H48.5141H48.4203H48.3264H48.2324H48.1382H48.0439H47.9495H47.8549H47.7602H47.6654H47.5705H47.4754H47.3802H47.2849H47.1895H47.094H46.9983H46.9026H46.8067H46.7107H46.6146H46.5184H46.4221H46.3257H46.2292H46.1326H46.0358H45.939H45.8421H45.7451H45.648H45.5508H45.4535H45.3561H45.2586H45.1611H45.0634H44.9657H44.8679H44.77H44.672H44.5739H44.4758H44.3776H44.2793H44.1809H44.0825H43.984H43.8854H43.7867H43.688H43.5892H43.4904H43.3915H43.2925H43.1935H43.0944H42.9953H42.8961H42.7968H42.6975H42.5981H42.4987H42.3993H42.2998H42.2002H42.1006H42.001H41.9013H41.8016H41.7018H41.6021H41.5022H41.4024H41.3025H41.2025H41.1026H41.0026H40.9026H40.8025H40.7025H40.6024H40.5023H40.4022H40.302H40.2018H40.1017H40.0015H39.9013H39.801H39.7008H39.6006H39.5003H39.4001H39.2998H39.1995H39.0993H38.999H38.8988H38.7985H38.6982H38.598H38.4977H38.3975H38.2973H38.1971H38.0969H37.9967H37.8965H37.7963H37.6962H37.5961H37.496H37.3959H37.2958H37.1958H37.0958H36.9958H36.8959H36.796H36.6961H36.5962H36.4964H36.3966H36.2969H36.1972H36.0975H35.9979H35.8983H35.7988H35.6993H35.5999H35.5005H35.4011H35.3019H35.2026H35.1034H35.0043H34.9053H34.8062H34.7073H34.6084H34.5096H34.4108H34.3121H34.2135H34.115H34.0165H33.9181H33.8197H33.7215H33.6233H33.5252H33.4271H33.3292H33.2313H33.1335H33.0358H32.9382H32.8407H32.7432H32.6459H32.5486H32.4514H32.3544H32.2574H32.1605H32.0637H31.967H31.8704H31.774H31.6776H31.5813H31.4852H31.3891H31.2932H31.1973H31.1016H31.006H30.9105H30.8151H30.7199H30.6247H30.5297H30.4348H30.3401H30.2454H30.1509H30.0565H29.9623H29.8681H29.7741H29.6803H29.5865H29.4929H29.3995H29.3062H29.213H29.12H29.0271H28.9344H28.8418H28.7493H28.657H28.5649H28.4729H28.381H28.2894H28.1978H28.1064H28.0152H27.9242H27.8333H27.7426H27.652H27.5616H27.4714H27.3813H27.2914H27.2017H27.1122H27.0228H26.9336H26.8446H26.7558H26.6671H26.5787H26.4904H26.4023H26.3143H26.2266H26.1391H26.0517H25.9646H25.8776H25.7908H25.7043H25.6179H25.5317H25.4457H25.3599H25.2744H25.189H25.1038H25.0189H24.9341H24.8496H24.7653H24.6811H24.5972H24.5136H24.4301H24.3469H24.2638H24.181H24.0984H24.0161H23.9339H23.852H23.7704H23.6889H23.6077H23.5267H23.446H23.3655H23.2852H23.2051H23.1253H23.0458H22.9665H22.8874H22.8086H22.73H22.6517H22.5736H22.4958H22.4182H22.3409H22.2638H22.187H22.1104H22.0341H21.9581H21.8823H21.8068H21.7316H21.6566H21.5819H21.5075H21.4333H21.3594H21.2858H21.2124H21.1394H21.0666H20.9941H20.9218H20.8499H20.7782H20.7069H20.6358H20.565H20.4944H20.4242H20.3543H20.2846H20.2153H20.1463H20.0775H20.0091H19.9409H19.8731H19.8055H19.7383H19.6713H19.6047H19.5384H19.4724H19.4067H19.3413H19.2762H19.2115H19.1471H19.083H19.0192H18.9557H18.8925H18.8297H18.7672H18.705H18.6432H18.5817H18.5205H18.4597H18.3992H18.339H18.2791H18.2196H18.1605H18.1017H18.0432H17.9851H17.9273H17.8698H17.8127H17.756H17.6996H17.6436H17.5879H17.5326H17.4776H17.423H17.3687H17.3149H17.2613H17.2082H17.1554H17.1029H17.0509H16.9992H16.9479H16.8969H16.8464H16.7962H16.7463H16.6969H16.6478H16.5992H16.5509H16.5029H16.4554H16.4083H16.3615H16.3151H16.2692H16.2236H16.1784H16.1336H16.0892H16.0452H16.0016H15.9584H15.9156H15.8732H15.8313H15.7897H15.7485H15.7077H15.6674H15.6275H15.5879H15.5488H15.5101H15.4719H15.434H15.3966H15.3596H15.323H15.2868H15.2511H15.2157H15.1809H15.1464H15.1124H15.0788H15.0457H15.0129H14.9807H14.9488H14.9174H14.8865H14.856H14.8259H14.7963H14.7671H14.7384H14.7101H14.6823H14.6549H14.628H14.6015H14.5755H14.55H14.5249H14.5003H14.4761H14.4524H14.4292H14.4065H14.3842H14.3624H14.341H14.3201H14.2997H14.2798H14.2604H14.2414H14.2229H14.2049H14.1874H14.1703H14.1538H14.1377H14.1221H14.107H14.0924H14.0783H14.0647H14.0516H14.039H14.0269H14.0152H14.0041H13.9935H13.9834H13.9738H13.9647H13.9561H13.948H13.9404H13.9334H13.9268H13.9208H13.9153H13.9103H13.9058H13.9019H13.8984H13.8955H13.8932H13.8913H13.89H13.8892C13.889 32.7223 13.8889 32.7223 13.8889 33.4723V32.7223ZM13.8889 47.0834C13.4747 47.0834 13.1389 47.4192 13.1389 47.8334C13.1389 48.2476 13.4747 48.5834 13.8889 48.5834V47.8334C13.8889 48.5834 13.889 48.5834 13.8892 48.5834H13.89H13.8913H13.8932H13.8955H13.8984H13.9019H13.9058H13.9103H13.9153H13.9208H13.9268H13.9334H13.9404H13.948H13.9561H13.9647H13.9738H13.9834H13.9935H14.0041H14.0152H14.0269H14.039H14.0516H14.0647H14.0783H14.0924H14.107H14.1221H14.1377H14.1538H14.1703H14.1874H14.2049H14.2229H14.2414H14.2604H14.2798H14.2997H14.3201H14.341H14.3624H14.3842H14.4065H14.4292H14.4524H14.4761H14.5003H14.5249H14.55H14.5755H14.6015H14.628H14.6549H14.6823H14.7101H14.7384H14.7671H14.7963H14.8259H14.856H14.8865H14.9174H14.9488H14.9807H15.0129H15.0457H15.0788H15.1124H15.1464H15.1809H15.2157H15.2511H15.2868H15.323H15.3596H15.3966H15.434H15.4719H15.5101H15.5488H15.5879H15.6275H15.6674H15.7077H15.7485H15.7897H15.8313H15.8732H15.9156H15.9584H16.0016H16.0452H16.0892H16.1336H16.1784H16.2236H16.2692H16.3151H16.3615H16.4083H16.4554H16.5029H16.5509H16.5992H16.6478H16.6969H16.7463H16.7962H16.8464H16.8969H16.9479H16.9992H17.0509H17.1029H17.1554H17.2082H17.2613H17.3149H17.3687H17.423H17.4776H17.5326H17.5879H17.6436H17.6996H17.756H17.8127H17.8698H17.9273H17.9851H18.0432H18.1017H18.1605H18.2196H18.2791H18.339H18.3992H18.4597H18.5205H18.5817H18.6432H18.705H18.7672H18.8297H18.8925H18.9557H19.0192H19.083H19.1471H19.2115H19.2762H19.3413H19.4067H19.4724H19.5384H19.6047H19.6713H19.7383H19.8055H19.8731H19.9409H20.0091H20.0775H20.1463H20.2153H20.2846H20.3543H20.4242H20.4944H20.565H20.6358H20.7069H20.7782H20.8499H20.9218H20.9941H21.0666H21.1394H21.2124H21.2858H21.3594H21.4333H21.5075H21.5819H21.6566H21.7316H21.8068H21.8823H21.9581H22.0341H22.1104H22.187H22.2638H22.3409H22.4182H22.4958H22.5736H22.6517H22.73H22.8086H22.8874H22.9665H23.0458H23.1253H23.2051H23.2852H23.3655H23.446H23.5267H23.6077H23.6889H23.7704H23.852H23.9339H24.0161H24.0984H24.181H24.2638H24.3469H24.4301H24.5136H24.5972H24.6811H24.7653H24.8496H24.9341H25.0189H25.1038H25.189H25.2744H25.3599H25.4457H25.5317H25.6179H25.7043H25.7908H25.8776H25.9646H26.0517H26.1391H26.2266H26.3143H26.4023H26.4904H26.5787H26.6671H26.7558H26.8446H26.9336H27.0228H27.1122H27.2017H27.2914H27.3813H27.4714H27.5616H27.652H27.7426H27.8333H27.9242H28.0152H28.1064H28.1978H28.2894H28.381H28.4729H28.5649H28.657H28.7493H28.8418H28.9344H29.0271H29.12H29.213H29.3062H29.3995H29.4929H29.5865H29.6803H29.7741H29.8681H29.9623H30.0565H30.1509H30.2454H30.3401H30.4348H30.5297H30.6247H30.7199H30.8151H30.9105H31.006H31.1016H31.1973H31.2932H31.3891H31.4852H31.5813H31.6776H31.774H31.8704H31.967H32.0637H32.1605H32.2574H32.3544H32.4514H32.5486H32.6459H32.7432H32.8407H32.9382H33.0358H33.1335H33.2313H33.3292H33.4271H33.5252H33.6233H33.7215H33.8197H33.9181H34.0165H34.115H34.2135H34.3121H34.4108H34.5096H34.6084H34.7073H34.8062H34.9053H35.0043H35.1034H35.2026H35.3019H35.4011H35.5005H35.5999H35.6993H35.7988H35.8983H35.9979H36.0975H36.1972H36.2969H36.3966H36.4964H36.5962H36.6961H36.796H36.8959H36.9958H37.0958H37.1958H37.2958H37.3959H37.496H37.5961H37.6962H37.7963H37.8965H37.9967H38.0969H38.1971H38.2973H38.3975H38.4977H38.598H38.6982H38.7985H38.8988H38.999H39.0993H39.1995H39.2998H39.4001H39.5003H39.6006H39.7008H39.801H39.9013H40.0015H40.1017H40.2018H40.302H40.4022H40.5023H40.6024H40.7025H40.8025H40.9026H41.0026H41.1026H41.2025H41.3025H41.4024H41.5022H41.6021H41.7018H41.8016H41.9013H42.001H42.1006H42.2002H42.2998H42.3993H42.4987H42.5981H42.6975H42.7968H42.8961H42.9953H43.0944H43.1935H43.2925H43.3915H43.4904H43.5892H43.688H43.7867H43.8854H43.984H44.0825H44.1809H44.2793H44.3776H44.4758H44.5739H44.672H44.77H44.8679H44.9657H45.0634H45.1611H45.2586H45.3561H45.4535H45.5508H45.648H45.7451H45.8421H45.939H46.0358H46.1326H46.2292H46.3257H46.4221H46.5184H46.6146H46.7107H46.8067H46.9026H46.9983H47.094H47.1895H47.2849H47.3802H47.4754H47.5705H47.6654H47.7602H47.8549H47.9495H48.0439H48.1382H48.2324H48.3264H48.4203H48.5141H48.6078H48.7013H48.7946H48.8878H48.9809H49.0739H49.1667H49.2593H49.3518H49.4442H49.5364H49.6284H49.7203H49.812H49.9036H49.9951H50.0863H50.1774H50.2684H50.3592H50.4498H50.5402H50.6305H50.7206H50.8106H50.9004H50.99H51.0794H51.1687H51.2577H51.3466H51.4354H51.5239H51.6122H51.7004H51.7884H51.8762H51.9638H52.0512C52.4654 48.5834 52.8012 48.2476 52.8012 47.8334C52.8012 47.4192 52.4654 47.0834 52.0512 47.0834H51.9638H51.8762H51.7884H51.7004H51.6122H51.5239H51.4354H51.3466H51.2577H51.1687H51.0794H50.99H50.9004H50.8106H50.7206H50.6305H50.5402H50.4498H50.3592H50.2684H50.1774H50.0863H49.9951H49.9036H49.812H49.7203H49.6284H49.5364H49.4442H49.3518H49.2593H49.1667H49.0739H48.9809H48.8878H48.7946H48.7013H48.6078H48.5141H48.4203H48.3264H48.2324H48.1382H48.0439H47.9495H47.8549H47.7602H47.6654H47.5705H47.4754H47.3802H47.2849H47.1895H47.094H46.9983H46.9026H46.8067H46.7107H46.6146H46.5184H46.4221H46.3257H46.2292H46.1326H46.0358H45.939H45.8421H45.7451H45.648H45.5508H45.4535H45.3561H45.2586H45.1611H45.0634H44.9657H44.8679H44.77H44.672H44.5739H44.4758H44.3776H44.2793H44.1809H44.0825H43.984H43.8854H43.7867H43.688H43.5892H43.4904H43.3915H43.2925H43.1935H43.0944H42.9953H42.8961H42.7968H42.6975H42.5981H42.4987H42.3993H42.2998H42.2002H42.1006H42.001H41.9013H41.8016H41.7018H41.6021H41.5022H41.4024H41.3025H41.2025H41.1026H41.0026H40.9026H40.8025H40.7025H40.6024H40.5023H40.4022H40.302H40.2018H40.1017H40.0015H39.9013H39.801H39.7008H39.6006H39.5003H39.4001H39.2998H39.1995H39.0993H38.999H38.8988H38.7985H38.6982H38.598H38.4977H38.3975H38.2973H38.1971H38.0969H37.9967H37.8965H37.7963H37.6962H37.5961H37.496H37.3959H37.2958H37.1958H37.0958H36.9958H36.8959H36.796H36.6961H36.5962H36.4964H36.3966H36.2969H36.1972H36.0975H35.9979H35.8983H35.7988H35.6993H35.5999H35.5005H35.4011H35.3019H35.2026H35.1034H35.0043H34.9053H34.8062H34.7073H34.6084H34.5096H34.4108H34.3121H34.2135H34.115H34.0165H33.9181H33.8197H33.7215H33.6233H33.5252H33.4271H33.3292H33.2313H33.1335H33.0358H32.9382H32.8407H32.7432H32.6459H32.5486H32.4514H32.3544H32.2574H32.1605H32.0637H31.967H31.8704H31.774H31.6776H31.5813H31.4852H31.3891H31.2932H31.1973H31.1016H31.006H30.9105H30.8151H30.7199H30.6247H30.5297H30.4348H30.3401H30.2454H30.1509H30.0565H29.9623H29.8681H29.7741H29.6803H29.5865H29.4929H29.3995H29.3062H29.213H29.12H29.0271H28.9344H28.8418H28.7493H28.657H28.5649H28.4729H28.381H28.2894H28.1978H28.1064H28.0152H27.9242H27.8333H27.7426H27.652H27.5616H27.4714H27.3813H27.2914H27.2017H27.1122H27.0228H26.9336H26.8446H26.7558H26.6671H26.5787H26.4904H26.4023H26.3143H26.2266H26.1391H26.0517H25.9646H25.8776H25.7908H25.7043H25.6179H25.5317H25.4457H25.3599H25.2744H25.189H25.1038H25.0189H24.9341H24.8496H24.7653H24.6811H24.5972H24.5136H24.4301H24.3469H24.2638H24.181H24.0984H24.0161H23.9339H23.852H23.7704H23.6889H23.6077H23.5267H23.446H23.3655H23.2852H23.2051H23.1253H23.0458H22.9665H22.8874H22.8086H22.73H22.6517H22.5736H22.4958H22.4182H22.3409H22.2638H22.187H22.1104H22.0341H21.9581H21.8823H21.8068H21.7316H21.6566H21.5819H21.5075H21.4333H21.3594H21.2858H21.2124H21.1394H21.0666H20.9941H20.9218H20.8499H20.7782H20.7069H20.6358H20.565H20.4944H20.4242H20.3543H20.2846H20.2153H20.1463H20.0775H20.0091H19.9409H19.8731H19.8055H19.7383H19.6713H19.6047H19.5384H19.4724H19.4067H19.3413H19.2762H19.2115H19.1471H19.083H19.0192H18.9557H18.8925H18.8297H18.7672H18.705H18.6432H18.5817H18.5205H18.4597H18.3992H18.339H18.2791H18.2196H18.1605H18.1017H18.0432H17.9851H17.9273H17.8698H17.8127H17.756H17.6996H17.6436H17.5879H17.5326H17.4776H17.423H17.3687H17.3149H17.2613H17.2082H17.1554H17.1029H17.0509H16.9992H16.9479H16.8969H16.8464H16.7962H16.7463H16.6969H16.6478H16.5992H16.5509H16.5029H16.4554H16.4083H16.3615H16.3151H16.2692H16.2236H16.1784H16.1336H16.0892H16.0452H16.0016H15.9584H15.9156H15.8732H15.8313H15.7897H15.7485H15.7077H15.6674H15.6275H15.5879H15.5488H15.5101H15.4719H15.434H15.3966H15.3596H15.323H15.2868H15.2511H15.2157H15.1809H15.1464H15.1124H15.0788H15.0457H15.0129H14.9807H14.9488H14.9174H14.8865H14.856H14.8259H14.7963H14.7671H14.7384H14.7101H14.6823H14.6549H14.628H14.6015H14.5755H14.55H14.5249H14.5003H14.4761H14.4524H14.4292H14.4065H14.3842H14.3624H14.341H14.3201H14.2997H14.2798H14.2604H14.2414H14.2229H14.2049H14.1874H14.1703H14.1538H14.1377H14.1221H14.107H14.0924H14.0783H14.0647H14.0516H14.039H14.0269H14.0152H14.0041H13.9935H13.9834H13.9738H13.9647H13.9561H13.948H13.9404H13.9334H13.9268H13.9208H13.9153H13.9103H13.9058H13.9019H13.8984H13.8955H13.8932H13.8913H13.89H13.8892C13.889 47.0834 13.8889 47.0834 13.8889 47.8334V47.0834Z" fill="#1A1A1A"/>
</g>
</svg>
