<svg width="80" height="80" viewBox="0 0 80 80" fill="none" xmlns="http://www.w3.org/2000/svg">
<g id="mail-send-envelope--envelope-email-message-unopened-sealed-close--Streamline-Core">
<path id="Union" fill-rule="evenodd" clip-rule="evenodd" d="M8.16326 35.1332L5.86084 33.9876L8.16326 32.0327V35.1332ZM9.63265 35.8642L39.272 50.6106L68.921 36.4615C68.906 36.4029 68.8979 36.3414 68.8979 36.278V29.1997V29.1945V21.5321C68.8979 19.9562 67.2795 18.4422 64.9607 18.4422H56.1257C56.1089 18.4427 56.0921 18.4427 56.0753 18.4422H23.9247C23.9079 18.4427 23.8911 18.4427 23.8743 18.4422H13.5699C11.2511 18.4422 9.63265 19.9562 9.63265 21.5321V30.1846C9.68174 30.3341 9.68107 30.4953 9.63265 30.6432V35.8642ZM8.16326 30.1051L4.25918 33.42C4.05122 33.5965 3.96598 33.864 4.01227 34.1143C4.00419 34.158 4.00002 34.2027 4.00002 34.248V67.8696C4.00002 71.2605 6.76139 74.0033 10.1601 74.0033H69.8399C73.2386 74.0033 76 71.2605 76 67.8696V34.248C76 34.2027 75.9958 34.158 75.9878 34.1143C76.034 33.864 75.9488 33.5965 75.7408 33.42L70.3673 28.8574V21.5321C70.3673 18.8834 67.8024 16.9728 64.9607 16.9728H56.3702L43.9478 6.42519L43.9478 6.42515L43.9411 6.41958C42.8341 5.50205 41.4396 5 40 5C38.5604 5 37.1659 5.50205 36.0589 6.41958L36.0589 6.41954L36.0522 6.42518L23.6298 16.9728H13.5699C10.7282 16.9728 8.16326 18.8834 8.16326 21.5321V30.1051ZM25.9 16.9728H54.1L43.0034 7.55088L43.0003 7.54826C42.158 6.85137 41.0966 6.46939 40 6.46939C38.9035 6.46939 37.8421 6.85133 36.9999 7.54813L36.9966 7.55088L25.9 16.9728ZM70.3673 30.7851V35.7713L74.1269 33.9772L70.3673 30.7851ZM74.5306 35.4126L39.5817 52.0909C39.3778 52.1882 39.1404 52.1863 38.938 52.0856L5.46941 35.4341V67.8696C5.46941 70.4422 7.56613 72.5339 10.1601 72.5339H69.8399C72.4339 72.5339 74.5306 70.4422 74.5306 67.8696V35.4126ZM21.8776 27.5269C21.8776 27.1211 22.2065 26.7922 22.6123 26.7922H55.9184C56.3242 26.7922 56.6531 27.1211 56.6531 27.5269C56.6531 27.9326 56.3242 28.2615 55.9184 28.2615H22.6123C22.2065 28.2615 21.8776 27.9326 21.8776 27.5269ZM22.6123 35.4982C22.2065 35.4982 21.8776 35.8272 21.8776 36.2329C21.8776 36.6387 22.2065 36.9676 22.6123 36.9676H41.2245C41.6303 36.9676 41.9592 36.6387 41.9592 36.2329C41.9592 35.8272 41.6303 35.4982 41.2245 35.4982H22.6123Z" fill="#1A1A1A"/>
</g>
</svg>
