<svg width="60" height="60" viewBox="0 0 60 60" fill="none" xmlns="http://www.w3.org/2000/svg">
<g clip-path="url(#clip0_2707_124857)">
<path fill-rule="evenodd" clip-rule="evenodd" d="M20.4072 7.87891L30.0002 17.4719L39.5933 7.87891L57.1215 25.4072L30.0002 52.5285L2.87891 25.4072L20.4072 7.87891ZM27.8789 19.5933L20.4072 12.1215L7.12155 25.4072L30.0002 48.2859L32.5301 45.756L27.6896 40.9155L29.8109 38.7942L34.6514 43.6347L37.1522 41.1339L32.6896 36.6713L34.8109 34.55L39.2735 39.0126L42.2684 36.0177L34.6139 28.3631L28.1876 34.3423L18.5249 28.9473L27.8789 19.5933ZM44.3898 33.8963L52.8789 25.4072L39.5933 12.1215L23.4523 28.2625L27.7431 30.6582L34.6889 24.1955L44.3898 33.8963Z" fill="#1A1A1A"/>
</g>
<defs>
<clipPath id="clip0_2707_124857">
<rect width="60" height="60" fill="white"/>
</clipPath>
</defs>
</svg>
