<svg width="60" height="60" viewBox="0 0 60 60" fill="none" xmlns="http://www.w3.org/2000/svg">
<g clip-path="url(#clip0_2922_88748)">
<path d="M35.0114 21.4453C36.8722 23.182 37.8962 25.5144 37.8962 27.9227H40.8962C40.8962 24.6494 39.5021 21.5329 37.0584 19.2521C34.6182 16.9746 31.3293 15.7114 27.9199 15.7114L27.9199 18.7114C30.5979 18.7114 33.1472 19.7053 35.0114 21.4453Z" fill="#1A1A1A"/>
<path fill-rule="evenodd" clip-rule="evenodd" d="M28.309 5C41.18 5 51.614 15.434 51.614 28.3051C51.614 34.2014 49.4243 39.5863 45.8137 43.6909L54.9979 52.8751L52.8766 54.9964L43.6922 45.8121C39.5879 49.4213 34.2041 51.6101 28.309 51.6101C15.4379 51.6101 5.00391 41.1761 5.00391 28.3051C5.00391 15.434 15.4379 5 28.309 5ZM48.614 28.3051C48.614 17.0909 39.5231 8 28.309 8C17.0948 8 8.00391 17.0909 8.00391 28.3051C8.00391 39.5192 17.0948 48.6101 28.309 48.6101C39.5231 48.6101 48.614 39.5193 48.614 28.3051Z" fill="#1A1A1A"/>
</g>
<defs>
<clipPath id="clip0_2922_88748">
<rect width="60" height="60" fill="white"/>
</clipPath>
</defs>
</svg>
