<svg width="48" height="48" viewBox="0 0 48 48" fill="none" xmlns="http://www.w3.org/2000/svg">
<g clip-path="url(#clip0_2778_17282)">
<path fill-rule="evenodd" clip-rule="evenodd" d="M24.0059 5C20.7599 5 17.6121 6.06905 15.2613 8.02152C13.2343 9.70504 11.9295 11.9435 11.6036 14.3708H4V43.0091H44.0079L44.0081 14.3708H42.8081V15.5708C42.8081 14.3708 42.8084 14.3708 42.8081 14.3708H36.4081C36.0823 11.9435 34.7774 9.70504 32.7505 8.02152C30.3997 6.06905 27.2518 5 24.0059 5ZM33.9782 14.3708C33.6717 12.7087 32.7304 11.1247 31.217 9.86776C29.3361 8.30551 26.7445 7.4 24.0059 7.4C21.2672 7.4 18.6757 8.30551 16.7947 9.86776C15.2813 11.1247 14.3401 12.7087 14.0336 14.3708H33.9782ZM41.6081 16.7708L41.608 25.6158H25.2047V21.1934H22.8047V25.6158H6.4V16.7708H41.6081ZM22.8047 32.4384V28.0158H6.4V40.6091H41.6079L41.608 28.0158H25.2047V32.4384H22.8047Z" fill="white"/>
</g>
<defs>
<clipPath id="clip0_2778_17282">
<rect width="48" height="48" fill="white"/>
</clipPath>
</defs>
</svg>
