<svg width="60" height="60" viewBox="0 0 60 60" fill="none" xmlns="http://www.w3.org/2000/svg">
<path d="M8 34H15.2941C17.7123 34 20.0314 34.9482 21.7413 36.636C23.4512 38.3239 24.4118 40.6131 24.4118 43" stroke="#121C72" stroke-width="1.5" stroke-linejoin="round"/>
<path d="M13.4706 42.9999H31.7059C33.6404 42.9999 35.4957 43.7584 36.8636 45.1087C38.2315 46.459 39 48.2903 39 50.1999C39 50.6773 38.8079 51.1351 38.4659 51.4727C38.1239 51.8102 37.6601 51.9999 37.1765 51.9999H8" stroke="#121C72" stroke-width="1.5" stroke-linejoin="round"/>
<path d="M34.9779 37L20.5928 23.5744C12.753 15.6279 24.1891 0.242872 34.9779 12.6888C45.7667 0.279157 57.3106 15.6642 49.3629 23.5744L34.9779 37Z" stroke="#121C72" stroke-width="1.5" stroke-linecap="round"/>
</svg>
