<svg width="24" height="24" viewBox="0 0 24 24" fill="none" xmlns="http://www.w3.org/2000/svg">
<path d="M18 8.83333C18 11.4409 16.4021 14.497 14.7524 16.9671C13.937 18.188 13.127 19.2398 12.532 19.9892C12.3762 20.1854 12.2232 20.3756 12.0919 20.5389C12.0599 20.5788 12.0292 20.617 12 20.6533C11.9708 20.617 11.9401 20.5788 11.9081 20.539C11.7768 20.3756 11.6238 20.1854 11.468 19.9892C10.873 19.2398 10.063 18.188 9.24763 16.9671C7.59792 14.497 6 11.4409 6 8.83333C6 5.62384 8.67397 3 12 3C15.326 3 18 5.62384 18 8.83333Z" stroke="#1A1A1A"/>
<circle cx="12" cy="9" r="2.5" stroke="#1A1A1A"/>
</svg>
