<svg width="48" height="48" viewBox="0 0 48 48" fill="none" xmlns="http://www.w3.org/2000/svg">
<path fill-rule="evenodd" clip-rule="evenodd" d="M32.9702 7.54972L36.9965 10.9609C37.3852 11.3552 37.6031 11.8973 37.6 12.4623C37.5968 13.0273 37.373 13.5666 36.9799 13.9562L33.9204 17.8351L23.5081 31.0597C23.3278 31.2807 23.0851 31.4368 22.8146 31.5058L17.4159 32.7987C16.6996 32.8296 16.0818 32.2796 16 31.5381L16.2525 25.9935C16.2713 25.7105 16.3789 25.4416 16.5589 25.2285L26.522 12.59L30.0308 8.1337C30.7125 7.16774 31.9947 6.913 32.9702 7.54972Z" stroke="black" stroke-width="1.5" stroke-linecap="round" stroke-linejoin="round"/>
<path d="M8 38.0874C7.58579 38.0874 7.25 38.4232 7.25 38.8374C7.25 39.2516 7.58579 39.5874 8 39.5874V38.0874ZM36.9637 39.5874C37.378 39.5874 37.7137 39.2516 37.7137 38.8374C37.7137 38.4232 37.378 38.0874 36.9637 38.0874V39.5874ZM26.984 12.1512C26.8289 11.7671 26.3919 11.5814 26.0078 11.7364C25.6237 11.8914 25.438 12.3285 25.593 12.7126L26.984 12.1512ZM34.0097 18.3156C34.4137 18.2243 34.6673 17.8228 34.576 17.4188C34.4847 17.0148 34.0832 16.7612 33.6792 16.8525L34.0097 18.3156ZM8 39.5874H36.9637V38.0874H8V39.5874ZM25.593 12.7126C26.0485 13.841 26.9929 15.461 28.3796 16.6942C29.7796 17.9391 31.6955 18.8384 34.0097 18.3156L33.6792 16.8525C31.9785 17.2367 30.5394 16.6074 29.3764 15.5733C28.2003 14.5274 27.3741 13.1179 26.984 12.1512L25.593 12.7126Z" fill="black"/>
</svg>
