<svg width="48" height="48" viewBox="0 0 48 48" fill="none" xmlns="http://www.w3.org/2000/svg">
<g clip-path="url(#clip0_2778_17300)">
<path fill-rule="evenodd" clip-rule="evenodd" d="M24.4625 3.63412C26.4094 3.82371 28.4159 4.80528 30.3322 6.70195C32.2499 4.81123 34.259 3.8353 36.2076 3.64947C38.472 3.43351 40.4787 4.30335 41.9255 5.71816C44.769 8.49882 45.6112 13.6019 42.054 17.172L42.0404 17.1857L30.3138 28.2216L18.5833 17.1819L18.566 17.1642C15.0589 13.5797 15.9097 8.47664 18.7494 5.69768C20.1953 4.28269 22.1996 3.41375 24.4625 3.63412ZM30.3138 24.9259L20.265 15.4688C17.8558 12.9878 18.377 9.42015 20.428 7.41298C21.4298 6.43262 22.7547 5.87915 24.2299 6.02282C25.711 6.16706 27.521 7.03331 29.4208 9.24322L30.3294 10.3002L31.2396 9.24454C33.1381 7.04254 34.9504 6.18026 36.4354 6.03863C37.9156 5.89747 39.2448 6.45351 40.2475 7.43405C42.2993 9.44054 42.8117 12.997 40.3669 15.4649L30.3138 24.9259Z" fill="white"/>
<path d="M19.7296 25.3734V33.291L32.2022 33.2909V44.4093L3.99219 44.1999L4.01 41.8L29.8022 41.9915V35.6909L7.86828 35.691V33.291H17.3296V27.7734H4.00218V25.3734L19.7296 25.3734Z" fill="white"/>
</g>
<defs>
<clipPath id="clip0_2778_17300">
<rect width="48" height="48" fill="white"/>
</clipPath>
</defs>
</svg>
