<svg width="60" height="60" viewBox="0 0 60 60" fill="none" xmlns="http://www.w3.org/2000/svg">
<g clip-path="url(#clip0_2707_124890)">
<path fill-rule="evenodd" clip-rule="evenodd" d="M27.5781 5.85039C22.9806 5.85039 19.2547 9.57322 19.2547 14.1642C19.2547 18.7552 22.9806 22.478 27.5781 22.478C32.1756 22.478 35.9015 18.7552 35.9015 14.1642C35.9015 9.57322 32.1756 5.85039 27.5781 5.85039ZM18.0547 14.1642C18.0547 8.90926 22.3191 4.65039 27.5781 4.65039C32.8371 4.65039 37.1015 8.90926 37.1015 14.1642C37.1015 19.4191 32.8371 23.678 27.5781 23.678C22.3191 23.678 18.0547 19.4191 18.0547 14.1642ZM11.5984 45.9991L11.5984 45.9982L11.5985 45.9909L11.5989 45.9576C11.5994 45.9272 11.6004 45.8806 11.6024 45.8189C11.6065 45.6954 11.6149 45.5115 11.6317 45.2759C11.6653 44.8044 11.733 44.1269 11.8688 43.3123C12.1409 41.6803 12.6842 39.5135 13.765 37.3539C14.8446 35.1967 16.4548 33.0576 18.8592 31.4565C21.2598 29.8579 24.4878 28.7715 28.8452 28.7715C34.7847 28.7715 38.6383 30.7899 41.1614 33.4024L42.0246 32.5688C39.2619 29.7081 35.0903 27.5715 28.8452 27.5715C24.2781 27.5715 20.813 28.7137 18.194 30.4577C15.5788 32.1993 13.8428 34.5171 12.6919 36.8168C11.5421 39.1142 10.9704 41.4042 10.6851 43.1149C10.5423 43.9717 10.4707 44.687 10.4347 45.1904C10.4167 45.4422 10.4077 45.6414 10.4031 45.779C10.4008 45.8479 10.3996 45.9013 10.3991 45.9384L10.3985 45.9815L10.3984 45.9936L10.3984 45.9972L10.3984 45.9984C10.3984 45.9988 10.3984 45.9991 10.7243 45.9992H10.3984V51.0928V51.6928H10.9984H28.8452V50.4928H11.5984V45.9995V45.9992V45.9991ZM42.687 54.1377L34.6945 46.6685C32.6843 44.6189 33.1302 41.6784 34.8211 40.0353C35.655 39.2249 36.7715 38.757 38.0198 38.8777C39.2709 38.9987 40.7409 39.7202 42.2464 41.4593L42.6994 41.9825L43.1531 41.4599C44.658 39.7267 46.13 39.0085 47.3838 38.8898C48.6355 38.7712 49.7551 39.2409 50.5897 40.0514C52.2814 41.6941 52.7206 44.6272 50.6815 46.6666L42.687 54.1377ZM38.1354 37.6833C39.6225 37.8271 41.1897 38.6066 42.7007 40.1772C44.2125 38.6114 45.7819 37.8361 47.2707 37.6951C48.9113 37.5397 50.3684 38.1637 51.4257 39.1905C53.516 41.2203 54.1226 44.9314 51.522 47.5232L51.5151 47.53L51.5081 47.5366L43.0966 55.3973L42.687 55.7801L42.2773 55.3973L33.8658 47.5366L33.8568 47.5281L33.8481 47.5193C31.2836 44.9166 31.8969 41.2037 33.9848 39.1747C35.0415 38.1478 36.4964 37.5248 38.1354 37.6833Z" fill="#1A1A1A"/>
<path fill-rule="evenodd" clip-rule="evenodd" d="M17.1534 14.1638C17.1534 8.4109 21.8216 3.75 27.5768 3.75C33.332 3.75 38.0002 8.4109 38.0002 14.1638C38.0002 19.9167 33.332 24.5776 27.5768 24.5776C21.8216 24.5776 17.1534 19.9167 17.1534 14.1638ZM27.5768 6.75C23.4755 6.75 20.1534 10.0708 20.1534 14.1638C20.1534 18.2568 23.4755 21.5776 27.5768 21.5776C31.6782 21.5776 35.0002 18.2568 35.0002 14.1638C35.0002 10.0708 31.6782 6.75 27.5768 6.75Z" fill="#1A1A1A"/>
<path d="M12.5 45.9976L12.5003 45.9717C12.5008 45.9463 12.5016 45.9048 12.5035 45.8484C12.5073 45.7356 12.515 45.5631 12.531 45.3396C12.5629 44.892 12.6276 44.2429 12.7581 43.4599C13.0204 41.887 13.5423 39.8126 14.5714 37.7563C15.5975 35.706 17.1134 33.701 19.3596 32.2052C21.5964 30.7157 24.6466 29.6712 28.8468 29.6712C34.5571 29.6712 38.1722 31.6008 40.5155 34.0272L42.6735 31.9432C39.7312 28.8965 35.3211 26.6712 28.8468 26.6712C24.1224 26.6712 20.4795 27.8551 17.6968 29.7082C14.9233 31.5551 13.093 34.0071 11.8886 36.4136C10.6871 38.8143 10.094 41.1968 9.79896 42.9665C9.65083 43.8549 9.57622 44.5985 9.53857 45.126C9.51973 45.3899 9.51009 45.6005 9.50516 45.7487C9.50269 45.8229 9.5014 45.8816 9.50073 45.9236L9.50011 45.9741L9.50002 45.9898L9.5 45.9952C9.5 45.9959 9.5 45.9986 10.2508 45.9988H9.5V52.5924H28.8468V49.5924H12.5V46.0008L12.5 45.9976Z" fill="#1A1A1A"/>
<path fill-rule="evenodd" clip-rule="evenodd" d="M38.2226 36.7877C39.742 36.9346 41.2648 37.6399 42.7025 38.9278C44.1416 37.6442 45.6662 36.9433 47.1864 36.7993C49.1187 36.6164 50.8289 37.356 52.0533 38.545C54.4412 40.8639 55.174 45.1551 52.1579 48.1609L52.1408 48.1779L42.6876 57.0122L33.2293 48.1733L33.2076 48.1512C30.2347 45.1339 30.9742 40.8461 33.3582 38.5295C34.582 37.3402 36.2907 36.6009 38.2226 36.7877ZM42.6876 52.9061L35.3246 46.0253C33.7359 44.3906 34.0575 42.0331 35.4489 40.6809C36.1157 40.033 36.9783 39.6814 37.9338 39.7737C38.8959 39.8668 40.1684 40.4335 41.5666 42.0486L42.699 43.3566L43.8333 42.0502C45.2299 40.4417 46.5038 39.8774 47.4693 39.786C48.4293 39.6951 49.2958 40.049 49.9633 40.6972C51.3548 42.0485 51.6693 44.3952 50.0559 46.0202L42.6876 52.9061Z" fill="#1A1A1A"/>
</g>
<defs>
<clipPath id="clip0_2707_124890">
<rect width="60" height="60" fill="white"/>
</clipPath>
</defs>
</svg>
