<svg width="60" height="60" viewBox="0 0 60 60" fill="none" xmlns="http://www.w3.org/2000/svg">
<g clip-path="url(#clip0_2707_124826)">
<path fill-rule="evenodd" clip-rule="evenodd" d="M20.6317 9.175C23.1986 6.96533 26.4711 5.75 29.8562 5.75C33.2412 5.75 36.5138 6.96533 39.0807 9.175C41.3277 11.1093 42.9038 13.6933 43.6037 16.5552C46.532 16.7811 49.2958 18.0475 51.3865 20.1424C53.7015 22.4622 55.0016 25.6079 55.0016 28.8874C55.0016 32.1668 53.7015 35.3125 51.3865 37.6323C49.073 39.9504 45.9354 41.2541 42.6626 41.2561C41.4909 41.267 40.3266 41.0998 39.209 40.7621C38.1796 41.9167 36.9405 42.8701 35.5542 43.5695C34.1949 44.2553 32.724 44.6819 31.2162 44.8313V54.2461H28.2162V44.7615C26.908 44.57 25.6351 44.1687 24.4474 43.5695C23.0611 42.8701 21.822 41.9167 20.7926 40.7621C19.675 41.0998 18.5107 41.267 17.339 41.2561C14.0662 41.2541 10.9285 39.9504 8.61513 37.6323C6.30005 35.3125 5 32.1668 5 28.8874C5 25.6079 6.30005 22.4622 8.61513 20.1424C10.6353 18.1181 13.2839 16.8675 16.1022 16.5815C16.7989 13.7092 18.3777 11.1152 20.6317 9.175ZM34.2029 40.8911C33.2633 41.3652 32.2534 41.6755 31.2162 41.8118V30.7127L37.0668 24.8053L34.9352 22.6942L31.2162 26.4494V19.0737H28.2162V32.8117L24.3445 28.9394L22.223 31.0605L28.2162 37.0547V41.719C27.3792 41.5558 26.5655 41.278 25.7987 40.8911C24.495 40.2334 23.3629 39.2786 22.4933 38.1032L21.7972 37.1623L20.7153 37.6087C19.6518 38.0475 18.5113 38.2676 17.3615 38.2562L17.3465 38.2561C14.8687 38.2561 12.4917 37.2698 10.7386 35.5131C8.98546 33.7564 8 31.3731 8 28.8874C8 26.4016 8.98546 24.0183 10.7386 22.2616C12.4917 20.5049 14.8687 19.5186 17.3465 19.5186H18.6355L18.8294 18.2443C19.2317 15.601 20.5657 13.1902 22.5888 11.4486C24.6119 9.70715 27.1901 8.75 29.8562 8.75C32.5222 8.75 35.1005 9.70715 37.1235 11.4486C39.1466 13.1902 40.4806 15.601 40.8829 18.2443L41.0768 19.5186H42.6551C45.1329 19.5186 47.5099 20.5049 49.263 22.2616C51.0161 24.0183 52.0016 26.4016 52.0016 28.8874C52.0016 31.3731 51.0161 33.7564 49.263 35.5131C47.5099 37.2698 45.1329 38.2561 42.6551 38.2561L42.6401 38.2562C41.4903 38.2676 40.3498 38.0475 39.2863 37.6087L38.2044 37.1623L37.5083 38.1032C36.6387 39.2786 35.5066 40.2334 34.2029 40.8911Z" fill="white"/>
</g>
<defs>
<clipPath id="clip0_2707_124826">
<rect width="60" height="60" fill="white"/>
</clipPath>
</defs>
</svg>
