<svg width="21" height="18" viewBox="0 0 21 18" fill="none" xmlns="http://www.w3.org/2000/svg">
<g id="flatten">
<g id="Union">
<path fill-rule="evenodd" clip-rule="evenodd" d="M0 9C0 13.701 3.60418 17.5601 8.2 17.9649V16.601C8.02551 16.2406 7.79708 15.7182 7.56767 15.0479C7.12364 13.7505 6.67649 11.9007 6.6088 9.6H17.9803C17.9934 9.40169 18 9.20162 18 9C18 4.02944 13.9706 0 9 0C4.02944 0 0 4.02944 0 9ZM6.83598 16.4959C3.76566 15.6111 1.47308 12.891 1.22273 9.6H5.40831C5.47645 12.054 5.95282 14.0354 6.43233 15.4365C6.56974 15.838 6.70746 16.192 6.83598 16.4959ZM11.3912 8.4C11.3235 6.09926 10.8764 4.24952 10.4323 2.9521C10.1913 2.24789 9.95137 1.70687 9.77393 1.34552C9.75436 1.30567 9.73556 1.26801 9.7176 1.23257C9.48129 1.21101 9.24193 1.2 9 1.2C8.75807 1.2 8.51871 1.21101 8.2824 1.23257C8.26444 1.26801 8.24564 1.30567 8.22607 1.34552C8.04863 1.70687 7.80869 2.24789 7.56767 2.9521C7.12364 4.24952 6.67649 6.09926 6.6088 8.4H11.3912ZM6.83598 1.5041C6.70746 1.80805 6.56974 2.16202 6.43233 2.56353C5.95282 3.96458 5.47645 5.94605 5.40831 8.4H1.22273C1.47308 5.10903 3.76566 2.3889 6.83598 1.5041ZM16.7773 8.4H12.5917C12.5235 5.94605 12.0472 3.96458 11.5677 2.56353C11.4303 2.16202 11.2925 1.80805 11.164 1.5041C14.2343 2.3889 16.5269 5.10903 16.7773 8.4Z" fill="white"/>
<path d="M9.94914 11.628V18H11.0831V16.11L11.8031 15.264L13.7111 18H15.0791L12.5951 14.49L15.0611 11.628H13.6571L11.1731 14.562H11.0831V11.628H9.94914Z" fill="white"/>
<path fill-rule="evenodd" clip-rule="evenodd" d="M15.6227 11.628V18H16.7567V15.66H17.9447L19.2047 18H20.4827L19.0967 15.48C19.8527 15.183 20.2487 14.535 20.2487 13.662C20.2487 12.456 19.4657 11.637 17.9987 11.628H15.6227ZM17.8367 14.724H16.7567V12.6H17.8367C18.6917 12.591 19.0787 12.996 19.0787 13.662C19.0787 14.346 18.6917 14.715 17.8367 14.724Z" fill="white"/>
</g>
</g>
</svg>
