<svg width="24" height="24" viewBox="0 0 24 24" fill="none" xmlns="http://www.w3.org/2000/svg">
<g clip-path="url(#clip0_2692_18356)">
<path fill-rule="evenodd" clip-rule="evenodd" d="M2 12C2 16.701 5.60418 20.5601 10.2 20.9649V19.601C10.0255 19.2406 9.79708 18.7182 9.56767 18.0479C9.12364 16.7505 8.67649 14.9007 8.6088 12.6H19.9803C19.9934 12.4017 20 12.2016 20 12C20 7.02944 15.9706 3 11 3C6.02944 3 2 7.02944 2 12ZM8.83598 19.4959C5.76566 18.6111 3.47308 15.891 3.22273 12.6H7.40831C7.47645 15.054 7.95282 17.0354 8.43233 18.4365C8.56974 18.838 8.70746 19.192 8.83598 19.4959ZM13.3912 11.4C13.3235 9.09926 12.8764 7.24952 12.4323 5.9521C12.1913 5.24789 11.9514 4.70687 11.7739 4.34552C11.7544 4.30567 11.7356 4.26801 11.7176 4.23257C11.4813 4.21101 11.2419 4.2 11 4.2C10.7581 4.2 10.5187 4.21101 10.2824 4.23257C10.2644 4.26801 10.2456 4.30567 10.2261 4.34552C10.0486 4.70687 9.80869 5.24789 9.56767 5.9521C9.12364 7.24952 8.67649 9.09926 8.6088 11.4H13.3912ZM8.83598 4.5041C8.70746 4.80805 8.56974 5.16202 8.43233 5.56353C7.95282 6.96458 7.47645 8.94605 7.40831 11.4H3.22273C3.47308 8.10903 5.76566 5.3889 8.83598 4.5041ZM18.7773 11.4H14.5917C14.5235 8.94605 14.0472 6.96458 13.5677 5.56353C13.4303 5.16202 13.2925 4.80805 13.164 4.5041C16.2343 5.3889 18.5269 8.10903 18.7773 11.4Z" fill="#1A1A1A"/>
<path d="M11.9491 14.628V21H13.0831V19.11L13.8031 18.264L15.7111 21H17.0791L14.5951 17.49L17.0611 14.628H15.6571L13.1731 17.562H13.0831V14.628H11.9491Z" fill="#1A1A1A"/>
<path fill-rule="evenodd" clip-rule="evenodd" d="M17.6227 14.628V21H18.7567V18.66H19.9447L21.2047 21H22.4827L21.0967 18.48C21.8527 18.183 22.2487 17.535 22.2487 16.662C22.2487 15.456 21.4657 14.637 19.9987 14.628H17.6227ZM19.8367 17.724H18.7567V15.6H19.8367C20.6917 15.591 21.0787 15.996 21.0787 16.662C21.0787 17.346 20.6917 17.715 19.8367 17.724Z" fill="#1A1A1A"/>
</g>
<defs>
<clipPath id="clip0_2692_18356">
<rect width="24" height="24" fill="white"/>
</clipPath>
</defs>
</svg>
