<svg width="21" height="18" viewBox="0 0 21 18" fill="none" xmlns="http://www.w3.org/2000/svg">
<g id="flatten">
<g id="Union">
<path fill-rule="evenodd" clip-rule="evenodd" d="M0 9.01757C0 13.7277 3.60418 17.5944 8.2 18V16.6339C8.02551 16.2728 7.79713 15.7494 7.56779 15.078C7.12362 13.7776 6.67634 11.9236 6.60877 9.61757H11.3912L11.3912 9.61874H12.5917L12.5917 9.61757H16.7774L16.7773 9.61874H17.9803C17.9934 9.42004 18 9.21958 18 9.01757C18 4.0373 13.9706 0 9 0C4.02944 0 0 4.0373 0 9.01757ZM6.83725 16.5307C3.76686 15.6443 1.4725 12.9183 1.22262 9.61757H5.40828C5.4763 12.0766 5.95269 14.062 6.43221 15.4659C6.57012 15.8696 6.70833 16.2254 6.83725 16.5307ZM11.3912 8.41757C11.3237 6.11149 10.8764 4.25749 10.4322 2.95714C10.1912 2.25147 9.95119 1.70932 9.77373 1.34721C9.75389 1.30673 9.73483 1.26851 9.71665 1.23257C9.48063 1.21101 9.24159 1.2 9 1.2C8.75841 1.2 8.51937 1.21101 8.28335 1.23257C8.26517 1.26851 8.24611 1.30673 8.22627 1.34721C8.04881 1.70932 7.80883 2.25147 7.56779 2.95714C7.12362 4.25749 6.67634 6.11149 6.60877 8.41757H11.3912ZM6.83725 1.50448C6.70833 1.80974 6.57012 2.16551 6.43221 2.56925C5.95269 3.97309 5.4763 5.95859 5.40828 8.41757H1.22262C1.4725 5.11687 3.76686 2.39083 6.83725 1.50448ZM16.7774 8.41757H12.5917C12.5237 5.95859 12.0473 3.97309 11.5678 2.56925C11.4299 2.16551 11.2917 1.80974 11.1628 1.50448C14.2331 2.39083 16.5275 5.11687 16.7774 8.41757Z" fill="#1A1A1A"/>
<path d="M9.86125 11.628V18H14.0192V17.046H10.9952V15.3H13.7852V14.328H10.9952V12.6H14.0012V11.628H9.86125Z" fill="#1A1A1A"/>
<path d="M20.1395 18V11.628H19.0055V15.984H18.9515L15.9455 11.628H14.9195V18H16.0535V13.662H16.1075L19.1315 18H20.1395Z" fill="#1A1A1A"/>
</g>
</g>
</svg>
