<svg width="18" height="18" viewBox="0 0 18 18" fill="none" xmlns="http://www.w3.org/2000/svg">
<path d="M17.0114 8.13885C17.2246 8.3751 17.3427 8.68204 17.3427 9.00028C17.3427 9.31852 17.2246 9.62546 17.0114 9.86171C15.6614 11.3146 12.5885 14.1431 9.00141 14.1431C5.41426 14.1431 2.34141 11.3146 0.991406 9.86171C0.778183 9.62546 0.660156 9.31852 0.660156 9.00028C0.660156 8.68204 0.778183 8.3751 0.991406 8.13885C2.34141 6.68599 5.41426 3.85742 9.00141 3.85742C12.5885 3.85742 15.6614 6.68599 17.0114 8.13885Z" stroke="#999999" stroke-linecap="round" stroke-linejoin="round"/>
<path d="M9.00112 11.5725C10.4213 11.5725 11.5725 10.4213 11.5725 9.00112C11.5725 7.58096 10.4213 6.42969 9.00112 6.42969C7.58096 6.42969 6.42969 7.58096 6.42969 9.00112C6.42969 10.4213 7.58096 11.5725 9.00112 11.5725Z" stroke="#999999" stroke-linecap="round" stroke-linejoin="round"/>
</svg>
