<svg width="80" height="80" viewBox="0 0 80 80" fill="none" xmlns="http://www.w3.org/2000/svg">
<g id="interface-user-edit--actions-close-edit-geometric-human-pencil-person-single-up-user-write--Streamline-Core">
<g id="Group">
<path id="Vector" d="M34 30.9999C40.2132 30.9999 45.2499 25.9632 45.2499 19.75C45.2499 13.5368 40.2132 8.5 34 8.5C27.7868 8.5 22.75 13.5368 22.75 19.75C22.75 25.9632 27.7868 30.9999 34 30.9999Z" stroke="#1A1A1A" stroke-width="1.5"/>
<path id="Vector_2" d="M26.5 67.5H11.5V60C11.5398 56.189 12.5449 52.4502 14.4214 49.1329C16.2978 45.8157 18.9845 43.0281 22.2303 41.0306C25.4762 39.0332 29.1754 37.891 32.9824 37.7108C36.7893 37.5306 40.5799 38.3182 43.9999 40" stroke="#1A1A1A" stroke-width="1.5"/>
<path id="Vector_3" d="M71.5007 46.5008L47.9508 70.0507L37.3008 71.5007L38.8008 60.8507L62.3007 37.3008L71.5007 46.5008Z" stroke="#1A1A1A" stroke-width="1.5"/>
</g>
</g>
</svg>
