<svg width="60" height="60" viewBox="0 0 60 60" fill="none" xmlns="http://www.w3.org/2000/svg">
<g clip-path="url(#clip0_2707_125772)">
<path fill-rule="evenodd" clip-rule="evenodd" d="M10.21 14.4796C10.21 8.69027 14.908 4 20.6997 4C26.4914 4 31.1894 8.69027 31.1894 14.4796C31.1894 20.2689 26.4914 24.9592 20.6997 24.9592C14.908 24.9592 10.21 20.2689 10.21 14.4796ZM20.6997 7C16.5616 7 13.21 10.3503 13.21 14.4796C13.21 18.6088 16.5616 21.9592 20.6997 21.9592C24.8377 21.9592 28.1894 18.6088 28.1894 14.4796C28.1894 10.3503 24.8377 7 20.6997 7Z" fill="#1A1A1A"/>
<path fill-rule="evenodd" clip-rule="evenodd" d="M48.4629 26.4691L57.4959 35.492L38.3895 54.5768L30.5453 55.6436C29.2312 55.8223 28.1103 54.6958 28.2954 53.3826L29.3997 45.5513L48.4629 26.4691ZM48.4651 30.7116L32.2304 46.9626L31.4506 52.4929L36.9842 51.7403L53.2509 35.492L48.4651 30.7116Z" fill="#1A1A1A"/>
<path d="M5.5 46.5493V50.1807H21.9794V53.1807H2.5V46.5495H3.25087C2.5 46.5494 2.5 46.5502 2.5 46.5495V46.546L2.50002 46.5405L2.50011 46.5248L2.50073 46.474C2.50141 46.4317 2.50271 46.3726 2.50519 46.298C2.51015 46.1487 2.51986 45.9368 2.53883 45.671C2.57674 45.14 2.65187 44.3913 2.80103 43.4967C3.09819 41.7146 3.69544 39.3157 4.9052 36.8986C6.11792 34.4756 7.96061 32.0072 10.7527 30.148C13.5541 28.2825 17.2219 27.0904 21.9794 27.0904C28.499 27.0904 32.9389 29.331 35.9008 32.3979L33.7429 34.482C31.3799 32.0353 27.735 30.0904 21.9794 30.0904C17.7461 30.0904 14.671 31.1431 12.4155 32.645C10.1507 34.1531 8.62236 36.1745 7.58794 38.2413C6.55056 40.314 6.02452 42.4048 5.76018 43.9901C5.6286 44.7792 5.56342 45.4335 5.53121 45.8847C5.51513 46.11 5.50732 46.2839 5.50354 46.3977C5.50164 46.4546 5.50076 46.4964 5.50035 46.522L5.5 46.5493Z" fill="#1A1A1A"/>
</g>
<defs>
<clipPath id="clip0_2707_125772">
<rect width="60" height="60" fill="white"/>
</clipPath>
</defs>
</svg>
