<svg width="80" height="80" viewBox="0 0 80 80" fill="none" xmlns="http://www.w3.org/2000/svg">
<rect x="8" y="14" width="64" height="40" stroke="#1A1A1A" stroke-width="1.5"/>
<path d="M33 54L29 66" stroke="#1A1A1A" stroke-width="1.5"/>
<path d="M46 54L51 66" stroke="#1A1A1A" stroke-width="1.5"/>
<path d="M22 66H58" stroke="#1A1A1A" stroke-width="1.5"/>
<path d="M40 43C44.4183 43 48 39.4183 48 35C48 30.5817 44.4183 27 40 27C35.5817 27 32 30.5817 32 35C32 39.4183 35.5817 43 40 43Z" stroke="#1A1A1A" stroke-width="1.5"/>
<path d="M40 37C41.1046 37 42 36.1046 42 35C42 33.8954 41.1046 33 40 33C38.8954 33 38 33.8954 38 35C38 36.1046 38.8954 37 40 37Z" stroke="#1A1A1A" stroke-width="1.5"/>
<path d="M40 27V21" stroke="#1A1A1A" stroke-width="1.5"/>
<path d="M40 49V43" stroke="#1A1A1A" stroke-width="1.5"/>
<path d="M48 35H54" stroke="#1A1A1A" stroke-width="1.5"/>
<path d="M26 35H32" stroke="#1A1A1A" stroke-width="1.5"/>
</svg>
