<svg width="60" height="60" viewBox="0 0 60 60" fill="none" xmlns="http://www.w3.org/2000/svg">
<g clip-path="url(#clip0_2707_125830)">
<path d="M44.0742 22.3783L41.9215 20.2889L26.1748 36.5128L18.0749 28.1675L15.9222 30.2569L26.1748 40.8202L44.0742 22.3783Z" fill="#1A1A1A"/>
<path fill-rule="evenodd" clip-rule="evenodd" d="M29.9993 2.5C14.8119 2.5 2.5 14.8119 2.5 29.9993C2.5 45.1868 14.8119 57.4987 29.9993 57.4987C45.1868 57.4987 57.4987 45.1868 57.4987 29.9993C57.4987 14.8119 45.1868 2.5 29.9993 2.5ZM5.5 29.9993C5.5 16.4687 16.4687 5.5 29.9993 5.5C43.53 5.5 54.4987 16.4687 54.4987 29.9993C54.4987 43.53 43.53 54.4987 29.9993 54.4987C16.4687 54.4987 5.5 43.53 5.5 29.9993Z" fill="#1A1A1A"/>
</g>
<defs>
<clipPath id="clip0_2707_125830">
<rect width="60" height="60" fill="white"/>
</clipPath>
</defs>
</svg>
