<svg width="60" height="60" viewBox="0 0 60 60" fill="none" xmlns="http://www.w3.org/2000/svg">
<g clip-path="url(#clip0_3462_41122)">
<path fill-rule="evenodd" clip-rule="evenodd" d="M26.2775 5H13.1206L5.03331 42.7353L5.11974 42.7538C5.04088 43.2761 5 43.8108 5 44.3551C5 50.2302 9.76335 54.9925 15.6388 54.9925C21.0723 54.9925 25.5547 50.9196 26.1982 45.6603H26.2775V29.9962H23.2775V36.9511C21.3438 34.957 18.636 33.7177 15.6388 33.7177C13.4122 33.7177 11.3453 34.4016 9.63689 35.5709L15.5458 8H23.2775V14.3321H26.2775V6.50178V5ZM15.6388 36.7177C19.8577 36.7177 23.2775 40.1373 23.2775 44.3551C23.2775 48.5729 19.8577 51.9925 15.6388 51.9925C11.4198 51.9925 8 48.5729 8 44.3551C8 40.1373 11.4198 36.7177 15.6388 36.7177Z" fill="#648AE2"/>
<path d="M37.8317 23.6641H22.1652V20.6641H37.8317V23.6641Z" fill="#648AE2"/>
<path fill-rule="evenodd" clip-rule="evenodd" d="M33.7963 45.6603C34.4398 50.9196 38.9222 54.9925 44.3558 54.9925C50.2312 54.9925 54.9945 50.2302 54.9945 44.3551C54.9945 43.8108 54.9536 43.2761 54.8748 42.7538L54.9612 42.7353L46.8739 5H33.717V6.5V14.3321H36.717V8H44.4487L50.3576 35.5709C48.6492 34.4016 46.5823 33.7177 44.3558 33.7177C41.3585 33.7177 38.6507 34.957 36.717 36.9511V29.9962H33.717V45.6603H33.7963ZM36.717 44.3551C36.717 40.1373 40.1368 36.7177 44.3558 36.7177C48.5747 36.7177 51.9945 40.1373 51.9945 44.3551C51.9945 48.5729 48.5747 51.9925 44.3558 51.9925C40.1368 51.9925 36.717 48.5729 36.717 44.3551Z" fill="#648AE2"/>
</g>
<defs>
<clipPath id="clip0_3462_41122">
<rect width="60" height="60" fill="white"/>
</clipPath>
</defs>
</svg>
