<svg width="60" height="60" viewBox="0 0 60 60" fill="none" xmlns="http://www.w3.org/2000/svg">
<g id="Road_finish_light">
<path id="Vector" d="M7 30L7.00002 29L5.99994 29L6 30.0001L7 30ZM52.9986 30L53.9986 29.9999L53.9985 29L52.9986 29L52.9986 30ZM53 54V55H54.0001L54 53.9999L53 54ZM7.00142 54L6.00142 54.0001L6.00147 55H7.00142V54ZM19.1961 30.0002L20.1767 30.1964L20.416 29.0002L19.1961 29.0002L19.1961 30.0002ZM40.8053 30.0002L40.8053 29.0002L39.5854 29.0002L39.8248 30.1964L40.8053 30.0002ZM15.3746 54.1962L20.1767 30.1964L18.2155 29.804L13.4135 53.8038L15.3746 54.1962ZM46.5879 53.8038L41.7859 29.804L39.8248 30.1964L44.6268 54.1962L46.5879 53.8038ZM52.9986 29L40.8053 29.0002L40.8053 31.0002L52.9986 31L52.9986 29ZM19.1961 29.0002L7.00002 29L6.99998 31L19.1961 31.0002L19.1961 29.0002ZM54 53.9999L53.9986 29.9999L51.9986 30.0001L52 54.0001L54 53.9999ZM53 53H7.00142V55H53V53ZM8.00142 53.9999L8 29.9999L6 30.0001L6.00142 54.0001L8.00142 53.9999Z" fill="#1A1A1A"/>
<path id="Vector 437" d="M30 49L30 44" stroke="#1A1A1A" stroke-width="2"/>
<path id="Vector 438" d="M30 41L30 36" stroke="#1A1A1A" stroke-width="2"/>
<path id="Rectangle 1" d="M30 20.25V8.75H46.25L41.25 14.5L46.25 20.25H30ZM30 20.25V31.5" stroke="#1A1A1A" stroke-width="2"/>
</g>
</svg>
