<svg width="60" height="60" viewBox="0 0 60 60" fill="none" xmlns="http://www.w3.org/2000/svg">
<g clip-path="url(#clip0_3462_41095)">
<path d="M28.5 1.75V7.25H31.5V1.75H28.5Z" fill="#648AE2"/>
<path fill-rule="evenodd" clip-rule="evenodd" d="M14.6084 26.5001C14.6084 18.0635 21.5125 11.2501 29.9973 11.2501C38.4821 11.2501 45.3862 18.0635 45.3862 26.5001C45.3862 32.4098 41.9958 37.5237 37.0545 40.0551V48.0002H22.9434V40.0568C18.0002 37.5259 14.6084 32.4111 14.6084 26.5001ZM29.9973 14.2501C23.1408 14.2501 17.6084 19.7487 17.6084 26.5001C17.6084 31.5129 20.6556 35.8346 25.0387 37.7298L25.9434 38.121V45.0002H34.0545V38.1199L34.9588 37.7286C39.3403 35.8327 42.3862 31.5118 42.3862 26.5001C42.3862 19.7487 36.8537 14.2501 29.9973 14.2501Z" fill="#648AE2"/>
<path fill-rule="evenodd" clip-rule="evenodd" d="M22.9434 49.75H37.0545V58.25H22.9434V49.75ZM25.9434 52.75V55.25H34.0545V52.75H25.9434Z" fill="#648AE2"/>
<path d="M48.3897 8.93399L50.5003 11.0659L46.3336 15.1909L44.223 13.059L48.3897 8.93399Z" fill="#648AE2"/>
<path d="M54.9989 25.0001H49.4434V28.0001H54.9989V25.0001Z" fill="#648AE2"/>
<path d="M9.50132 11.0659L11.612 8.93399L15.7786 13.059L13.668 15.1909L9.50132 11.0659Z" fill="#648AE2"/>
<path d="M5 28.0001H10.5556V25.0001H5V28.0001Z" fill="#648AE2"/>
</g>
<defs>
<clipPath id="clip0_3462_41095">
<rect width="60" height="60" fill="white"/>
</clipPath>
</defs>
</svg>
