<svg width="61" height="60" viewBox="0 0 61 60" fill="none" xmlns="http://www.w3.org/2000/svg">
<rect x="24.999" y="49" width="10" height="3" stroke="#1A1A1A" stroke-width="2"/>
<path d="M34.999 39.9119L34.5819 39.0031L33.999 39.2706V39.9119H34.999ZM24.999 39.9119H25.999V39.2706L25.4162 39.0031L24.999 39.9119ZM24.999 46H23.999V47H24.999V46ZM34.999 46V47H35.999V46H34.999ZM40.999 29C40.999 33.4379 38.3709 37.264 34.5819 39.0031L35.4162 40.8208C39.8892 38.7678 42.999 34.2481 42.999 29H40.999ZM29.999 18C36.0742 18 40.999 22.9249 40.999 29H42.999C42.999 21.8203 37.1787 16 29.999 16V18ZM18.999 29C18.999 22.9249 23.9239 18 29.999 18V16C22.8193 16 16.999 21.8203 16.999 29H18.999ZM25.4162 39.0031C21.6271 37.264 18.999 33.4379 18.999 29H16.999C16.999 34.2481 20.1088 38.7678 24.5819 40.8208L25.4162 39.0031ZM25.999 46V39.9119H23.999V46H25.999ZM34.999 45H24.999V47H34.999V45ZM33.999 39.9119V46H35.999V39.9119H33.999Z" fill="#1A1A1A"/>
<path d="M29.999 7V13" stroke="#1A1A1A" stroke-width="2"/>
<path d="M12.999 12L17.499 16.5" stroke="#1A1A1A" stroke-width="2"/>
<path d="M47.999 12L43.499 16.5" stroke="#1A1A1A" stroke-width="2"/>
<path d="M6.99902 27H12.999" stroke="#1A1A1A" stroke-width="2"/>
<path d="M53.499 27H47.499" stroke="#1A1A1A" stroke-width="2"/>
</svg>
