<svg width="60" height="60" viewBox="0 0 60 60" fill="none" xmlns="http://www.w3.org/2000/svg">
<path d="M21.001 24.002H39.001" stroke="#1A1A1A" stroke-width="2"/>
<path d="M45.001 54C49.9715 54 54.001 49.9706 54.001 45C54.001 40.0294 49.9715 36 45.001 36C40.0304 36 36.001 40.0294 36.001 45C36.001 49.9706 40.0304 54 45.001 54Z" stroke="#1A1A1A" stroke-width="2"/>
<path d="M36.0015 15.1892C36.0015 13.601 36.001 6.00195 36.001 6.00195H46.876L53.626 42.3755" stroke="#1A1A1A" stroke-width="2"/>
<path d="M36.001 33.75V45" stroke="#1A1A1A" stroke-width="2"/>
<path d="M15.001 54C10.0304 54 6.00098 49.9706 6.00098 45C6.00098 40.0294 10.0304 36 15.001 36C19.9715 36 24.001 40.0294 24.001 45C24.001 49.9706 19.9715 54 15.001 54Z" stroke="#1A1A1A" stroke-width="2"/>
<path d="M24.0005 15.1892C24.0005 13.601 24.001 6.00195 24.001 6.00195H13.126L6.37598 42.3755" stroke="#1A1A1A" stroke-width="2"/>
<path d="M24.001 33.75V45" stroke="#1A1A1A" stroke-width="2"/>
</svg>
