<svg width="60" height="60" viewBox="0 0 60 60" fill="none" xmlns="http://www.w3.org/2000/svg">
<g clip-path="url(#clip0_3462_41111)">
<path fill-rule="evenodd" clip-rule="evenodd" d="M50.9205 8.76665C50.1818 7.41112 48.2356 7.41112 47.4968 8.76665L42.4268 18.0702V52.2601H55.9906V18.0702L50.9205 8.76665ZM45.4268 18.8346L49.2087 11.8948L52.9906 18.8346V49.2601H45.4268V18.8346Z" fill="#429320"/>
<path fill-rule="evenodd" clip-rule="evenodd" d="M28.1029 44.7824C30.2398 43.1925 32.8058 42.139 35.5967 41.8342V44.8566C32.4571 45.2846 29.6902 46.8924 27.7547 49.2124L25.4511 49.2124C23.1786 46.4885 19.7567 44.7571 15.9265 44.7571C12.0962 44.7571 8.67427 46.4884 6.40179 49.2123L3.75 48.2514V19.6517C3.75 17.7242 4.21101 16.1078 5.04749 14.7878C5.88034 13.4735 7.03069 12.539 8.28081 11.8823C10.7364 10.5922 13.6985 10.3098 15.9264 10.3098C18.1544 10.3098 21.1165 10.5922 23.5721 11.8823C24.7238 12.4873 25.7908 13.3281 26.6029 14.4844C27.415 13.3281 28.482 12.4873 29.6337 11.8823C32.0893 10.5922 35.0514 10.3098 37.2794 10.3098C37.794 10.3098 38.3478 10.3249 38.9254 10.364L37.32 13.3099L37.2794 13.3098C35.2144 13.3098 32.8383 13.5876 31.0289 14.5381C30.1465 15.0016 29.4327 15.6074 28.9344 16.3936C28.4398 17.1741 28.1029 18.2184 28.1029 19.6517V44.7824ZM7.58153 16.3936C7.08693 17.1741 6.75 18.2184 6.75 19.6517V44.785C9.31133 42.8834 12.4876 41.7571 15.9265 41.7571C19.3653 41.7571 22.5416 42.8835 25.1029 44.7851V19.6517C25.1029 18.2184 24.766 17.1741 24.2714 16.3936C23.7732 15.6074 23.0593 15.0016 22.1769 14.5381C20.3675 13.5876 17.9914 13.3098 15.9264 13.3098C13.8615 13.3098 11.4854 13.5876 9.67599 14.5381C8.79361 15.0016 8.07975 15.6074 7.58153 16.3936Z" fill="#429320"/>
</g>
<defs>
<clipPath id="clip0_3462_41111">
<rect width="60" height="60" fill="white"/>
</clipPath>
</defs>
</svg>
