<svg width="48" height="48" viewBox="0 0 48 48" fill="none" xmlns="http://www.w3.org/2000/svg">
<g id="interface-edit-write-2--change-document-edit-modify-paper-pencil-write-writing--Streamline-Core">
<path id="Union" fill-rule="evenodd" clip-rule="evenodd" d="M36.6827 5.04177C36.964 4.92459 37.2657 4.86426 37.5704 4.86426C37.8751 4.86426 38.1768 4.92459 38.458 5.04177C38.7393 5.15895 38.9946 5.33066 39.2092 5.547L39.2113 5.54918L42.453 8.79083L42.4551 8.793C42.6715 9.00757 42.8432 9.26285 42.9604 9.54412C43.0776 9.8254 43.1379 10.1271 43.1379 10.4318C43.1379 10.7365 43.0776 11.0382 42.9604 11.3195C42.8432 11.6007 42.6715 11.856 42.4551 12.0706L42.452 12.0737L25.1565 29.4299L17.2593 30.8514L18.5768 22.8414L35.9285 5.55011L35.9316 5.547C36.1462 5.33067 36.4015 5.15895 36.6827 5.04177ZM37.5704 3.36426C37.0677 3.36426 36.5699 3.4638 36.1059 3.65713C35.6425 3.85016 35.2219 4.13289 34.8683 4.48904L34.8666 4.49071L17.3466 21.9497C17.2351 22.0607 17.1615 22.204 17.1359 22.3592L15.6069 31.656C15.5673 31.8964 15.647 32.141 15.8206 32.312C15.9942 32.483 16.24 32.559 16.4798 32.5158L25.6542 30.8644C25.8052 30.8373 25.9443 30.7644 26.0526 30.6557L43.5114 13.1356L43.513 13.134C43.8692 12.7803 44.152 12.3597 44.345 11.8963C44.5383 11.4323 44.6379 10.9345 44.6379 10.4318C44.6379 9.92907 44.5383 9.43132 44.345 8.96726C44.1519 8.50367 43.8689 8.08286 43.5125 7.72907L43.5114 7.728L40.2742 4.49071L40.2731 4.48963C39.9193 4.13321 39.4985 3.85027 39.0349 3.65713C38.5709 3.4638 38.0731 3.36426 37.5704 3.36426ZM5.5403 10.1451C5.97316 9.71223 6.56024 9.46905 7.1724 9.46905H16.3468C16.761 9.46905 17.0968 9.13327 17.0968 8.71905C17.0968 8.30484 16.761 7.96905 16.3468 7.96905H7.1724C6.16241 7.96905 5.1938 8.37027 4.47963 9.08444C3.76547 9.7986 3.36426 10.7672 3.36426 11.7772V40.8297C3.36426 41.8397 3.76547 42.8083 4.47963 43.5224C5.1938 44.2366 6.16241 44.6378 7.1724 44.6378H36.2247C37.2347 44.6378 38.2033 44.2366 38.9175 43.5224C39.6316 42.8083 40.0328 41.8397 40.0328 40.8297V31.6552C40.0328 31.241 39.6971 30.9052 39.2828 30.9052C38.8686 30.9052 38.5328 31.241 38.5328 31.6552V40.8297C38.5328 41.4418 38.2897 42.0289 37.8568 42.4618C37.424 42.8947 36.8369 43.1378 36.2247 43.1378H7.1724C6.56024 43.1378 5.97316 42.8947 5.5403 42.4618C5.10744 42.0289 4.86426 41.4418 4.86426 40.8297V11.7772C4.86426 11.165 5.10744 10.578 5.5403 10.1451Z" fill="#1A1A1A"/>
</g>
</svg>
